<?xml version="1.0" encoding="UTF-8" standalone="no"?>
<!-- Created with Inkscape (http://www.inkscape.org/) -->

<svg
   xmlns:dc="http://purl.org/dc/elements/1.1/"
   xmlns:cc="http://creativecommons.org/ns#"
   xmlns:rdf="http://www.w3.org/1999/02/22-rdf-syntax-ns#"
   xmlns:svg="http://www.w3.org/2000/svg"
   xmlns="http://www.w3.org/2000/svg"
   xmlns:sodipodi="http://sodipodi.sourceforge.net/DTD/sodipodi-0.dtd"
   xmlns:inkscape="http://www.inkscape.org/namespaces/inkscape"
   width="210mm"
   height="210mm"
   viewBox="0 0 210 210"
   version="1.1"
   id="svg8"
   sodipodi:docname="favicon.svg"
   inkscape:version="0.92.4 (5da689c313, 2019-01-14)">
  <defs
     id="defs2" />
  <sodipodi:namedview
     id="base"
     pagecolor="#7f70f5"
     bordercolor="#666666"
     borderopacity="1.0"
     inkscape:pageopacity="1"
     inkscape:pageshadow="2"
     inkscape:zoom="0.5379861"
     inkscape:cx="-10.967358"
     inkscape:cy="443.06144"
     inkscape:document-units="mm"
     inkscape:current-layer="layer4"
     showgrid="false"
     inkscape:window-width="1920"
     inkscape:window-height="1016"
     inkscape:window-x="0"
     inkscape:window-y="27"
     inkscape:window-maximized="1"
     inkscape:pagecheckerboard="true" />
  <metadata
     id="metadata5">
    <rdf:RDF>
      <cc:Work
         rdf:about="">
        <dc:format>image/svg+xml</dc:format>
        <dc:type
           rdf:resource="http://purl.org/dc/dcmitype/StillImage" />
        <dc:title></dc:title>
      </cc:Work>
    </rdf:RDF>
  </metadata>
  <g
     inkscape:groupmode="layer"
     id="layer4"
     inkscape:label="Vectors"
     style="display:inline">
    <path
       style="fill:#ffffff;stroke:none;stroke-width:0.2832489px;stroke-linecap:butt;stroke-linejoin:miter;stroke-opacity:1"
       d="m 67.155861,96.198134 c -8.302676,21.659286 16.973795,30.701866 3.57396,66.290036 15.728953,0.89501 32.831559,-2.94659 44.089459,-8.94362 0.30773,-0.4694 0.87872,-0.46715 0.56596,-2.04967 -1.1842,-49.98457 -37.862148,-34.33186 -45.431023,-54.173002 -2.337511,-0.45343 -1.35193,0.832064 -2.798356,-1.123744 z m 3.506478,7.325326 c 1.235928,-9e-5 2.237867,1.00185 2.237778,2.23778 8.9e-5,1.23593 -1.00185,2.23787 -2.237778,2.23778 -1.235927,9e-5 -2.237865,-1.00185 -2.237776,-2.23778 -8.9e-5,-1.23593 1.001849,-2.23787 2.237776,-2.23778 z"
       id="path953"
       inkscape:connector-curvature="0"
       sodipodi:nodetypes="ccccccccccc" />
    <path
       style="fill:#ffffff;stroke:none;stroke-width:0.2832489px;stroke-linecap:butt;stroke-linejoin:miter;stroke-opacity:1"
       d="m 63.470933,92.766782 c -13.499484,4.371086 0.06701,45.466768 -25.376823,61.538768 10.339204,4.90544 21.587069,7.10472 29.332035,7.80948 3.271456,-11.84405 5.300453,-18.25723 0.932582,-33.94448 -2.429689,-7.22156 -9.195851,-24.16284 -4.707354,-34.285804 -0.06477,0.13095 -0.345546,-0.897814 -0.18044,-1.117964 z m -2.68026,23.787788 c 1.163199,-6e-5 2.106173,0.94291 2.106109,2.10611 -2.4e-4,1.16298 -0.943125,2.10562 -2.106109,2.10556 -1.162985,6e-5 -2.105871,-0.94258 -2.106111,-2.10556 -6.4e-5,-1.1632 0.942912,-2.10617 2.106111,-2.10611 z"
       id="path955"
       inkscape:connector-curvature="0"
       sodipodi:nodetypes="ccccccccccc" />
    <path
       style="fill:#ffffff;stroke:none;stroke-width:0.2832489px;stroke-linecap:butt;stroke-linejoin:miter;stroke-opacity:1"
       d="m 60.846782,84.794317 c -10.573288,5.801017 -20.373737,38.835563 -48.025358,45.835893 0.07462,0.93377 9.189901,15.85743 23.231865,22.34778 23.194004,-13.51002 11.862883,-59.126594 25.604834,-62.579623 -0.950904,-1.659031 -1.389437,-3.393492 -0.811341,-5.60405 z m -9.467499,16.623033 c 0.690691,8e-5 1.2505,0.56014 1.250281,1.25083 -8.5e-5,0.69048 -0.559805,1.2502 -1.250281,1.25028 -0.690475,-9e-5 -1.250193,-0.55981 -1.250278,-1.25028 -2.19e-4,-0.69069 0.559589,-1.25074 1.250278,-1.25083 z"
       id="path957"
       inkscape:connector-curvature="0"
       sodipodi:nodetypes="cccccccccc" />
    <path
       style="fill:#ffffff;stroke:none;stroke-width:0.2832489px;stroke-linecap:butt;stroke-linejoin:miter;stroke-opacity:1"
       d="m 57.687659,82.950959 c -19.205234,-0.0991 -32.52314,21.225421 -53.5126354,20.542141 1.3644715,8.77885 1.7605525,12.78758 7.2428994,24.55081 24.627498,-6.79967 36.056069,-42.470896 49.164185,-44.922064 -0.98553,-0.110867 -1.949931,-0.166077 -2.894449,-0.170947 z m -13.15282,6.225354 c 0.617965,1.1e-4 1.118811,0.501197 1.118612,1.119164 -1.1e-4,0.617747 -0.500866,1.118494 -1.118612,1.118604 -0.617746,-1.1e-4 -1.118501,-0.500857 -1.118611,-1.118604 -1.99e-4,-0.617957 0.500646,-1.119054 1.118611,-1.119164 z m -9.410834,11.319927 c 1.453678,1.5e-4 2.632078,1.17855 2.632223,2.63223 1.53e-4,1.45389 -1.178334,2.63262 -2.632223,2.63277 -1.454105,1.6e-4 -2.632929,-1.17867 -2.632776,-2.63277 1.45e-4,-1.45389 1.178882,-2.63239 2.632776,-2.63223 z m -15.400553,7.37111 c 2.108217,-6e-5 3.81728,1.709 3.817222,3.81722 -2.46e-4,2.108 -1.70922,3.81673 -3.817222,3.81667 -2.107786,-2.5e-4 -3.816422,-1.70888 -3.816668,-3.81667 -5.8e-5,-2.108 1.708667,-3.81697 3.816668,-3.81722 z"
       id="path959"
       inkscape:connector-curvature="0"
       sodipodi:nodetypes="ccccccccccccccccccccc" />
    <path
       style="fill:#ffffff;stroke:none;stroke-width:0.2832489px;stroke-linecap:butt;stroke-linejoin:miter;stroke-opacity:1"
       d="M 10.687444,67.367086 C 5.6648528,75.308211 2.3000412,88.141219 3.836118,100.57816 18.216251,101.62889 43.319093,77.699099 60.427758,81.212198 l -0.06583,-1.674041 C 47.852368,70.409428 20.147615,83.807513 10.687444,67.367086 Z m 4.853108,11.466824 c 1.439419,-1e-4 2.606324,1.166804 2.606222,2.606218 -2.02e-4,1.439191 -1.167019,2.605755 -2.606222,2.605645 -1.438988,-2e-4 -2.605467,-1.166674 -2.605669,-2.605645 -1.04e-4,-1.439204 1.166466,-2.606008 2.605669,-2.606218 z m 19.638222,1.396324 c 1.079456,0 1.954528,0.875064 1.954528,1.954518 0,1.079444 -0.875072,1.954518 -1.954528,1.954518 -1.079456,0 -1.954528,-0.875074 -1.954528,-1.954518 0,-1.079454 0.875072,-1.954518 1.954528,-1.954518 z m -13.495261,7.818065 c 0.771008,-1.3e-4 1.396153,0.624767 1.396329,1.395771 1.33e-4,0.771227 -0.625104,1.396454 -1.396329,1.396324 -0.771227,1.3e-4 -1.396462,-0.625097 -1.396329,-1.396324 1.74e-4,-0.771004 0.625319,-1.395901 1.396329,-1.395771 z"
       id="path961"
       inkscape:connector-curvature="0"
       sodipodi:nodetypes="cccccccccccccccccccc" />
    <path
       style="fill:#ffffff;stroke:none;stroke-width:0.2832489px;stroke-linecap:butt;stroke-linejoin:miter;stroke-opacity:1"
       d="M 30.10742,46.75683 C 22.151,51.540904 16.98319,56.863465 12.392814,63.885713 20.225211,80.207714 50.605904,67.529486 60.454867,77.044262 54.550498,66.619182 33.522099,62.031728 30.10742,46.75683 Z m -2.513854,11.042611 c 1.105107,3.4e-5 2.000965,0.89589 2.001001,2.000997 2.7e-4,1.105323 -0.895678,2.001518 -2.001001,2.001552 -1.105322,-3.6e-5 -2.001268,-0.89623 -2.000998,-2.001552 3.6e-5,-1.105106 0.895892,-2.000961 2.000998,-2.000997 z m 7.957524,6.142957 c 1.079457,-10e-7 1.95453,0.875073 1.954528,1.954527 2e-6,1.079454 -0.875071,1.954518 -1.954528,1.954518 -1.079457,0 -1.954529,-0.875064 -1.954527,-1.954518 -2e-6,-1.079454 0.87507,-1.954527 1.954527,-1.954527 z m -13.215884,2.419784 c 0.514079,1.2e-4 0.930708,0.416987 0.930518,0.931064 -1.14e-4,0.513857 -0.416654,0.930397 -0.930518,0.930517 -0.514079,1.9e-4 -0.930956,-0.41644 -0.93107,-0.930517 -1.9e-4,-0.514287 0.416776,-0.931254 0.93107,-0.931064 z"
       id="path963"
       inkscape:connector-curvature="0"
       sodipodi:nodetypes="ccccccccccccccccccc" />
    <path
       style="fill:#ffffff;stroke:none;stroke-width:0.2832489px;stroke-linecap:butt;stroke-linejoin:miter;stroke-opacity:1"
       d="M 52.378887,40.123919 C 45.411541,40.639123 39.617746,41.500804 32.444429,45.591192 36.881455,59.985154 59.709362,65.134478 62.379521,78.554543 66.561881,68.47015 39.409174,54.247287 52.378887,40.123919 Z m -8.730308,6.041846 c 0.925126,8.5e-5 1.675067,0.750025 1.675154,1.675151 -8.5e-5,0.925127 -0.750027,1.675069 -1.675154,1.675154 -0.925126,-8.7e-5 -1.675066,-0.750028 -1.675151,-1.675154 8.7e-5,-0.925124 0.750027,-1.675064 1.675151,-1.675151 z"
       id="path965"
       inkscape:connector-curvature="0"
       sodipodi:nodetypes="ccccccccc" />
    <path
       style="fill:#ffffff;stroke:none;stroke-width:0.2832489px;stroke-linecap:butt;stroke-linejoin:miter;stroke-opacity:1"
       d="M 54.662581,40.182696 C 45.444971,54.695605 64.262557,62.691198 64.212894,78.87707 71.721529,71.672882 56.844979,53.372266 69.695592,42.796439 65.340103,41.5213 62.776486,40.637154 54.662581,40.182696 Z M 58.54017,52.21523 c 0.976857,-1.46e-4 1.768792,0.79179 1.768645,1.768647 -1.59e-4,0.976641 -0.792004,1.768239 -1.768645,1.768093 -0.976424,-1.6e-4 -1.767932,-0.791669 -1.768091,-1.768093 -1.47e-4,-0.976641 0.79145,-1.768487 1.768091,-1.768647 z"
       id="path967"
       inkscape:connector-curvature="0"
       sodipodi:nodetypes="ccccccccc" />
    <path
       style="fill:#ffffff;stroke:none;stroke-width:0.2832489px;stroke-linecap:butt;stroke-linejoin:miter;stroke-opacity:1"
       d="m 71.740698,43.587454 c -12.154026,11.978571 2.342628,21.674474 -6.1702,36.53933 C 78.769858,73.94612 66.470953,56.636841 84.318353,50.086823 80.180429,47.116862 76.653564,45.20953 71.740698,43.587454 Z m 1.086394,5.09104 c 1.464857,2.38e-4 2.652211,1.180161 2.652138,2.63554 7.6e-5,1.455381 -1.187279,2.635306 -2.652138,2.635544 -1.465076,6.7e-5 -2.65277,-1.179948 -2.652694,-2.635544 -7.3e-5,-1.455595 1.18762,-2.635607 2.652694,-2.63554 z"
       id="path975"
       inkscape:connector-curvature="0"
       sodipodi:nodetypes="ccccccccc" />
    <path
       style="fill:#ffffff;stroke:none;stroke-width:0.2832489px;stroke-linecap:butt;stroke-linejoin:miter;stroke-opacity:1"
       d="m 85.574811,51.020649 c 4.156558,2.966628 6.370254,6.271644 7.588488,7.383944 -16.314858,3.796805 -12.257475,19.90697 -24.040797,21.128154 l -2.43e-4,1e-4 C 80.791413,67.115009 69.133029,60.101036 85.574811,51.020649 Z"
       id="path977"
       inkscape:connector-curvature="0"
       sodipodi:nodetypes="ccccc" />
    <path
       style="fill:#ffffff;stroke:none;stroke-width:0.2832489px;stroke-linecap:butt;stroke-linejoin:miter;stroke-opacity:1"
       d="m 94.223222,59.758597 c 1.505252,1.571659 2.229859,3.343831 2.988743,5.323961 C 94.299349,76.151518 84.822793,75.267251 79.202399,84.60444 76.826737,81.696495 74.604755,83.462566 71.781218,82.381482 L 70.976715,80.276804 C 81.17448,78.814573 80.043167,61.263134 94.223222,59.758597 Z"
       id="path979"
       inkscape:connector-curvature="0"
       sodipodi:nodetypes="cccccc" />
    <path
       style="fill:#ffffff;stroke:none;stroke-width:0.2832489px;stroke-linecap:butt;stroke-linejoin:miter;stroke-opacity:1"
       d="m 72.645006,83.870483 c 4.274876,0.1704 4.267526,0.765677 5.980695,2.377455 -1.466653,2.997335 -1.364292,6.099617 -1.387709,9.337989 -3.78133,-0.0393 -5.563061,0.188327 -7.778003,-0.555347 -7.174381,-2.408848 -7.960189,-9.073259 -5.765645,-12.074041 2.580577,-3.528642 8.988349,-2.445588 9.648867,9.893283 1.593583,-3.195992 -0.307406,-6.315164 -0.698205,-8.979339 z"
       id="path981"
       inkscape:connector-curvature="0"
       sodipodi:nodetypes="cccsscc" />
    <path
       style="fill:#ffffff;stroke:none;stroke-width:0.2832489px;stroke-linecap:butt;stroke-linejoin:miter;stroke-opacity:1"
       d="m 102.11071,62.453128 c -1.61896,17.242279 -23.610049,13.055243 -18.935629,33.490136 28.912579,-3.280132 19.659889,1.375614 59.697459,13.057086 -0.21226,-1.74065 -1.75421,-3.3452 -6.46382,-5.80605 C 119.717,94.141446 110.49311,65.170098 102.11071,62.453128 Z m -7.8336,18.197553 c 0.07577,-0.002 0.148119,0.002 0.216864,0.0116 -3.047387,2.509595 -4.569705,5.34235 -3.862034,9.121449 2.705055,1.008914 5.247993,0.330307 7.591292,2.002648 0.07145,0.0261 0.120116,0.0557 0.13333,0.0913 -0.04412,-0.0333 -0.08903,-0.0597 -0.13333,-0.0913 -1.222588,-0.446407 -10.468144,0.446647 -10.56983,0.835904 -1.285842,-6.589691 4.274982,-11.923681 6.623708,-11.971621 z"
       id="path983"
       inkscape:connector-curvature="0" />
    <path
       style="fill:#ffffff;stroke:none;stroke-width:0.2832489px;stroke-linecap:butt;stroke-linejoin:miter;stroke-opacity:1"
       d="m 104.03515,117.62022 -4.494618,-3.60433 0.769728,-1.3579 c 0.39436,1.40604 1.50621,-0.48195 1.76479,-1.0393 l 1.58222,-3.30409 c 2.16206,-3.29519 -1.79421,-7.90593 -3.58421,-2.79236 1.71159,2.31357 1.36758,4.0999 0.4654,6.64327 l -0.997928,1.85038 c -4.250888,-1.96849 -8.900881,-4.62589 -12.605799,-6.7485 -1.29461,-12.925997 26.723467,-17.71861 23.231097,2.534 -0.45827,2.65753 -3.41232,5.12759 -6.13068,7.81883 z"
       id="path985"
       inkscape:connector-curvature="0"
       sodipodi:nodetypes="cccccccccsc" />
    <path
       style="fill:#ffffff;stroke:none;stroke-width:0.2832489px;stroke-linecap:butt;stroke-linejoin:miter;stroke-opacity:1"
       d="m 104.73221,118.02892 5.03065,4.98235 c 11.18806,-4.55609 22.67108,-0.25812 33.51156,2.79625 30.09356,7.17613 45.50476,-1.13125 64.10989,-20.72577 -4.30626,0.24529 -0.9851,3.38946 -23.5217,15.1229 -25.17038,10.55023 -43.48932,-9.94444 -69.01338,-8.09733 -4.42846,0.24058 -6.33529,2.53594 -10.11702,5.9216 z"
       id="path987"
       inkscape:connector-curvature="0"
       sodipodi:nodetypes="ccccccc" />
    <path
       style="fill:#ffffff;stroke:none;stroke-width:0.2832489px;stroke-linecap:butt;stroke-linejoin:miter;stroke-opacity:1"
       d="m 110.96805,124.75441 c 2.62057,2.72431 3.25788,5.15614 4.11679,8.65008 8.94762,0.37497 18.13782,-2.38732 24.53987,-5.97125 -9.92731,-3.02045 -19.92802,-4.60789 -28.65666,-2.67883 z"
       id="path991"
       inkscape:connector-curvature="0"
       sodipodi:nodetypes="cccc" />
    <path
       style="fill:#ffffff;stroke:none;stroke-width:0.2832489px;stroke-linecap:butt;stroke-linejoin:miter;stroke-opacity:1"
       d="m 146.67838,116.50521 7.37409,1.90273 c 12.10403,-10.31462 24.55273,-20.383228 39.40959,-24.389474 -20.26704,3.396069 -30.79912,12.056424 -46.78368,22.486744 z"
       id="path993"
       inkscape:connector-curvature="0"
       sodipodi:nodetypes="cccc" />
    <path
       style="fill:#ffffff;stroke:none;stroke-width:0.2832489px;stroke-linecap:butt;stroke-linejoin:miter;stroke-opacity:1"
       d="m 136.27729,132.61263 c 0.77069,-0.24709 6.12054,-4.17908 6.12054,-4.17908 6.40451,1.67112 12.76167,2.87293 18.9412,1.82294 11.57173,5.83937 21.05087,5.58622 33.13387,4.83977 -5.87777,2.04545 -12.20252,2.94602 -18.66107,2.93178 -12.8678,-1.4119 -26.36285,-4.59121 -37.88058,-5.58436 z"
       id="path995"
       inkscape:connector-curvature="0"
       sodipodi:nodetypes="ccccccc" />
    <path
       style="fill:#ffffff;stroke:none;stroke-width:0.2832489px;stroke-linecap:butt;stroke-linejoin:miter;stroke-opacity:1"
       d="m 115.72739,135.64 0.87201,6.64703 c 11.6071,-4.32549 21.87629,-1.18666 31.8956,5.14133 15.11272,8.68938 27.50748,9.26279 41.78963,2.83872 0,0 -9.02805,0.79111 -9.63301,1.02379 -21.37149,3.94536 -37.10268,-17.80984 -53.17725,-16.98435 -2.82484,0.42579 -8.89831,1.24251 -11.74698,1.33348 z"
       id="path997"
       inkscape:connector-curvature="0"
       sodipodi:nodetypes="ccccccc" />
    <path
       style="fill:#ffffff;stroke:none;stroke-width:0.2832489px;stroke-linecap:butt;stroke-linejoin:miter;stroke-opacity:1"
       d="m 114.0581,110.57162 c 10.78599,-1.40802 15.13067,0.60489 25.2227,3.81599 0,0 -2.87727,-4.17504 -2.97034,-4.45427 -5.92372,-0.7059 -17.49509,-5.23531 -22.19258,-7.9178 0.93214,5.90781 0.40701,3.42071 -0.0597,8.55608 z"
       id="path999"
       inkscape:connector-curvature="0"
       sodipodi:nodetypes="ccccc" />
    <path
       style="fill:#ffffff;stroke:none;stroke-width:0.2832489px;stroke-linecap:butt;stroke-linejoin:miter;stroke-opacity:1"
       d="m 116.85993,143.63101 0.22303,1.70326 c 18.47781,-0.10955 13.68503,31.4643 33.08072,24.39651 -13.48145,-2.34785 -10.96406,-19.89011 -15.36717,-25.99587 -6.79317,-0.96774 -11.64335,-1.69328 -17.93658,-0.10385 z"
       id="path1001"
       inkscape:connector-curvature="0"
       sodipodi:nodetypes="ccccc" />
  </g>
</svg>
