<?xml version="1.0" encoding="UTF-8" standalone="no"?>
<svg
   xmlns:dc="http://purl.org/dc/elements/1.1/"
   xmlns:cc="http://creativecommons.org/ns#"
   xmlns:rdf="http://www.w3.org/1999/02/22-rdf-syntax-ns#"
   xmlns:svg="http://www.w3.org/2000/svg"
   xmlns="http://www.w3.org/2000/svg"
   xmlns:sodipodi="http://sodipodi.sourceforge.net/DTD/sodipodi-0.dtd"
   xmlns:inkscape="http://www.inkscape.org/namespaces/inkscape"
   width="210mm"
   height="210mm"
   viewBox="0 0 210 210"
   version="1.1"
   id="svg8"
   sodipodi:docname="example.svg"
   inkscape:version="1.0 (5b275a35d9, 2020-05-03)">
  <defs
     id="defs2" />
  <sodipodi:namedview
     borderlayer="true"
     id="base"
     pagecolor="#666666"
     bordercolor="#666666"
     borderopacity="1.0"
     inkscape:pageopacity="1"
     inkscape:pageshadow="2"
     inkscape:zoom="0.5379861"
     inkscape:cx="125.8079"
     inkscape:cy="389.27344"
     inkscape:document-units="mm"
     inkscape:current-layer="layer4"
     showgrid="false"
     inkscape:window-width="1920"
     inkscape:window-height="1016"
     inkscape:window-x="0"
     inkscape:window-y="27"
     inkscape:window-maximized="1"
     inkscape:pagecheckerboard="true"
     inkscape:document-rotation="0" />
  <metadata
     id="metadata5">
    <rdf:RDF>
      <cc:Work
         rdf:about="">
        <dc:format>image/svg+xml</dc:format>
        <dc:type
           rdf:resource="http://purl.org/dc/dcmitype/StillImage" />
        <dc:title></dc:title>
      </cc:Work>
    </rdf:RDF>
  </metadata>
  <g
     inkscape:groupmode="layer"
     id="layer4"
     inkscape:label="Vectors"
     style="display:inline">
    <rect
       style="fill:#7f70f5;fill-opacity:1;stroke:#2ad4ff;stroke-width:0.242081;stroke-linecap:round;stroke-linejoin:round;paint-order:stroke fill markers"
       id="rect851"
       width="209.3912"
       height="209.53325"
       x="0.74804264"
       y="0.36105081"
       ry="36.706272" />
    <path
       style="fill:#ffffff;stroke:none;stroke-width:0.282806px;stroke-linecap:butt;stroke-linejoin:miter;stroke-opacity:1"
       d="m 66.599728,102.33299 c -8.289721,21.62549 16.947308,30.65395 3.568383,66.18659 15.704409,0.89362 32.780329,-2.94199 44.020669,-8.92967 0.30724,-0.46866 0.87734,-0.46642 0.56507,-2.04647 -1.18235,-49.90657 -37.803069,-34.27828 -45.360133,-54.08847 -2.333864,-0.45271 -1.34982,0.83077 -2.793989,-1.12198 z m 3.501006,7.3139 c 1.234,-1e-4 2.234376,1.00028 2.234286,2.23428 9e-5,1.234 -1.000286,2.23438 -2.234286,2.23428 -1.233998,1e-4 -2.234373,-1.00028 -2.234284,-2.23428 -8.9e-5,-1.234 1.000286,-2.23438 2.234284,-2.23428 z"
       id="path953"
       inkscape:connector-curvature="0"
       sodipodi:nodetypes="ccccccccccc" />
    <path
       style="fill:#ffffff;stroke:none;stroke-width:0.282806px;stroke-linecap:butt;stroke-linejoin:miter;stroke-opacity:1"
       d="m 62.92055,98.906985 c -13.478419,4.364265 0.06691,45.395825 -25.337224,61.442745 10.32307,4.89779 21.553383,7.09363 29.286264,7.7973 3.266352,-11.82557 5.292182,-18.22875 0.931127,-33.89152 -2.425897,-7.21029 -9.181501,-24.12513 -4.700009,-34.2323 -0.06467,0.13075 -0.345006,-0.896415 -0.180158,-1.116225 z m -2.676077,23.750675 c 1.161383,-6e-5 2.102886,0.94143 2.102821,2.10282 -2.39e-4,1.16116 -0.941653,2.10234 -2.102821,2.10228 -1.161171,6e-5 -2.102586,-0.94112 -2.102825,-2.10228 -6.4e-5,-1.16139 0.94144,-2.10288 2.102825,-2.10282 z"
       id="path955"
       inkscape:connector-curvature="0"
       sodipodi:nodetypes="ccccccccccc" />
    <path
       style="fill:#ffffff;stroke:none;stroke-width:0.282806px;stroke-linecap:butt;stroke-linejoin:miter;stroke-opacity:1"
       d="m 60.300493,90.94696 c -10.556789,5.791965 -20.341945,38.77497 -47.950418,45.76437 0.07451,0.93232 9.175561,15.83269 23.195614,22.31292 C 58.7035,145.5353 47.390061,99.989905 61.110568,96.542265 60.161148,94.885823 59.7233,93.154069 60.300493,90.94696 Z m -9.452726,16.5971 c 0.689614,8e-5 1.248549,0.55927 1.248331,1.24887 -8.5e-5,0.68941 -0.558931,1.24826 -1.248331,1.24833 -0.689396,-8e-5 -1.248241,-0.55893 -1.248326,-1.24833 -2.19e-4,-0.6896 0.558716,-1.24878 1.248326,-1.24887 z"
       id="path957"
       inkscape:connector-curvature="0"
       sodipodi:nodetypes="cccccccccc" />
    <path
       style="fill:#ffffff;stroke:none;stroke-width:0.282806px;stroke-linecap:butt;stroke-linejoin:miter;stroke-opacity:1"
       d="M 57.1463,89.106479 C 37.971034,89.007534 24.67391,110.29879 3.7171671,109.61657 5.0795094,118.38172 5.4749724,122.3842 10.948764,134.12907 35.537833,127.34001 46.94857,91.724442 60.036233,89.277098 59.052241,89.166405 58.089345,89.111281 57.1463,89.106419 Z m -13.132296,6.215639 c 0.617001,1.11e-4 1.117066,0.500416 1.116867,1.117418 -1.11e-4,0.616783 -0.500085,1.116749 -1.116867,1.116858 -0.616782,-1.09e-4 -1.116755,-0.500075 -1.116865,-1.116858 -1.99e-4,-0.616993 0.499864,-1.117307 1.116865,-1.117418 z m -9.396149,11.302272 c 1.45141,1.4e-4 2.62797,1.17671 2.628116,2.62812 1.53e-4,1.45161 -1.176496,2.62851 -2.628116,2.62866 -1.451836,1.7e-4 -2.62882,-1.17683 -2.628668,-2.62866 1.44e-4,-1.45162 1.177043,-2.62828 2.628668,-2.62812 z M 19.241334,113.984 c 2.104927,-7e-5 3.811323,1.70633 3.811265,3.81126 -2.46e-4,2.10471 -1.706553,3.81078 -3.811265,3.81071 -2.104498,-2.4e-4 -3.810467,-1.70621 -3.810713,-3.81071 -5.9e-5,-2.10471 1.706001,-3.81102 3.810713,-3.81126 z"
       id="path959"
       inkscape:connector-curvature="0"
       sodipodi:nodetypes="ccccccccccccccccccccc" />
    <path
       style="fill:#ffffff;stroke:none;stroke-width:0.282806px;stroke-linecap:butt;stroke-linejoin:miter;stroke-opacity:1"
       d="M 10.219425,73.546923 C 5.2046715,81.475656 1.8451104,94.28864 3.3787903,106.70618 17.736485,107.75527 42.800155,83.862814 59.882124,87.370431 l -0.06573,-1.671429 C 47.326357,76.584518 19.664834,89.961696 10.219425,73.546923 Z m 4.845535,11.448931 c 1.437173,-10e-5 2.602258,1.164983 2.602156,2.602152 -2.01e-4,1.436945 -1.165198,2.601688 -2.602156,2.601578 -1.436743,-1.99e-4 -2.601401,-1.164853 -2.601602,-2.601578 -1.04e-4,-1.436959 1.164645,-2.601943 2.601602,-2.602152 z m 19.607579,1.394145 c 1.077771,0 1.951478,0.873699 1.951478,1.951468 0,1.07776 -0.873707,1.951469 -1.951478,1.951469 -1.077772,0 -1.951479,-0.873709 -1.951479,-1.951469 0,-1.077769 0.873707,-1.951468 1.951479,-1.951468 z m -13.474203,7.805866 c 0.769805,-1.3e-4 1.393974,0.623792 1.39415,1.393593 1.33e-4,0.770023 -0.624128,1.394275 -1.39415,1.394145 -0.770024,1.3e-4 -1.394283,-0.624122 -1.39415,-1.394145 1.73e-4,-0.769801 0.624343,-1.393723 1.39415,-1.393593 z"
       id="path961"
       inkscape:connector-curvature="0"
       sodipodi:nodetypes="cccccccccccccccccccc" />
    <path
       style="fill:#ffffff;stroke:none;stroke-width:0.282806px;stroke-linecap:butt;stroke-linejoin:miter;stroke-opacity:1"
       d="M 29.609098,52.968828 C 21.665094,57.745437 16.505347,63.059692 11.922134,70.070983 19.742309,86.367515 50.075596,73.70907 59.90919,83.208999 54.014035,72.800186 33.018448,68.219891 29.609098,52.968828 Z m -2.509932,11.025379 c 1.103384,3.4e-5 1.997843,0.894492 1.997879,1.997875 2.69e-4,1.103598 -0.894279,1.998395 -1.997879,1.998429 -1.103596,-3.5e-5 -1.998145,-0.894832 -1.997875,-1.998429 3.7e-5,-1.103382 0.894494,-1.997839 1.997875,-1.997875 z m 7.945107,6.133372 c 1.077773,-10e-7 1.95148,0.873708 1.951478,1.951477 2e-6,1.077769 -0.873705,1.951469 -1.951478,1.951469 -1.077772,0 -1.951478,-0.8737 -1.951476,-1.951469 -2e-6,-1.077769 0.873704,-1.951477 1.951476,-1.951477 z m -13.195261,2.416008 c 0.513277,1.21e-4 0.929256,0.416337 0.929066,0.929611 -1.14e-4,0.513055 -0.416004,0.928946 -0.929066,0.929065 -0.513276,1.9e-4 -0.929504,-0.41579 -0.929617,-0.929065 -1.9e-4,-0.513483 0.416126,-0.929801 0.929617,-0.929611 z"
       id="path963"
       inkscape:connector-curvature="0"
       sodipodi:nodetypes="ccccccccccccccccccc" />
    <path
       style="fill:#ffffff;stroke:none;stroke-width:0.282806px;stroke-linecap:butt;stroke-linejoin:miter;stroke-opacity:1"
       d="m 51.845812,46.346267 c -6.956475,0.5144 -12.741228,1.374736 -19.903351,5.458742 4.430102,14.371501 27.222388,19.51279 29.88838,32.911914 C 66.006674,74.648266 38.896337,60.447596 51.845812,46.346267 Z m -8.716684,6.032418 c 0.923682,8.5e-5 1.672452,0.748855 1.67254,1.672536 -8.6e-5,0.923684 -0.748858,1.672456 -1.67254,1.672541 -0.923683,-8.7e-5 -1.672453,-0.748858 -1.672538,-1.672541 8.7e-5,-0.923679 0.748856,-1.672449 1.672538,-1.672536 z"
       id="path965"
       inkscape:connector-curvature="0"
       sodipodi:nodetypes="ccccccccc" />
    <path
       style="fill:#ffffff;stroke:none;stroke-width:0.282806px;stroke-linecap:butt;stroke-linejoin:miter;stroke-opacity:1"
       d="m 54.125943,46.404952 c -9.203228,14.490263 9.584996,22.473379 9.535409,38.633995 7.496919,-7.192946 -7.356417,-25.465006 5.474144,-36.02433 -4.348692,-1.273149 -6.908309,-2.155916 -15.009553,-2.609665 z M 57.99748,58.41871 c 0.975333,-1.46e-4 1.766033,0.790555 1.765887,1.765888 -1.6e-4,0.975117 -0.790769,1.765479 -1.765887,1.765333 -0.9749,-1.59e-4 -1.765173,-0.790433 -1.765331,-1.765333 -1.47e-4,-0.975117 0.790214,-1.765728 1.765331,-1.765888 z"
       id="path967"
       inkscape:connector-curvature="0"
       sodipodi:nodetypes="ccccccccc" />
    <path
       style="fill:#ffffff;stroke:none;stroke-width:0.282806px;stroke-linecap:butt;stroke-linejoin:miter;stroke-opacity:1"
       d="M 71.17741,49.804397 C 59.04235,61.764277 73.516384,71.445051 65.016838,86.286711 78.195601,80.115691 65.915889,62.833422 83.735439,56.293625 79.603972,53.328298 76.08261,51.423942 71.17741,49.804397 Z m 1.0847,5.083096 c 1.46257,2.38e-4 2.648072,1.178319 2.647999,2.631428 7.6e-5,1.45311 -1.185427,2.631193 -2.647999,2.631431 -1.462791,6.7e-5 -2.648632,-1.178106 -2.648555,-2.631431 -7.4e-5,-1.453324 1.185766,-2.631495 2.648555,-2.631428 z"
       id="path975"
       inkscape:connector-curvature="0"
       sodipodi:nodetypes="ccccccccc" />
    <path
       style="fill:#ffffff;stroke:none;stroke-width:0.282806px;stroke-linecap:butt;stroke-linejoin:miter;stroke-opacity:1"
       d="m 84.989936,57.225993 c 4.150072,2.962 6.360315,6.261858 7.576645,7.372423 C 76.277183,68.389296 80.328235,84.474322 68.5633,85.6936 l -2.43e-4,1.01e-4 C 80.214003,73.29524 68.573809,66.292211 84.989936,57.225993 Z"
       id="path977"
       inkscape:connector-curvature="0"
       sodipodi:nodetypes="ccccc" />
    <path
       style="fill:#ffffff;stroke:none;stroke-width:0.282806px;stroke-linecap:butt;stroke-linejoin:miter;stroke-opacity:1"
       d="m 93.624856,65.950306 c 1.502902,1.569207 2.226376,3.338614 2.984074,5.315654 -2.908067,11.051688 -12.369838,10.168801 -17.981462,19.49142 -2.371954,-2.903408 -4.59047,-1.140092 -7.4096,-2.21949 L 70.41462,86.436496 c 10.181852,-1.459948 9.052303,-18.984 23.210236,-20.48619 z"
       id="path979"
       inkscape:connector-curvature="0"
       sodipodi:nodetypes="cccccc" />
    <path
       style="fill:#ffffff;stroke:none;stroke-width:0.282806px;stroke-linecap:butt;stroke-linejoin:miter;stroke-opacity:1"
       d="m 72.080307,90.024568 c 4.268206,0.170133 4.260867,0.764482 5.971363,2.373745 -1.464364,2.992657 -1.362163,6.090099 -1.385544,9.323427 -3.775429,-0.0392 -5.554379,0.18803 -7.765866,-0.55448 -7.163185,-2.405095 -7.947767,-9.05911 -5.756648,-12.05521 2.576551,-3.523137 8.974324,-2.441772 9.63381,9.877845 1.591098,-3.191005 -0.306925,-6.30531 -0.697115,-8.965327 z"
       id="path981"
       inkscape:connector-curvature="0"
       sodipodi:nodetypes="cccsscc" />
    <path
       style="fill:#ffffff;stroke:none;stroke-width:0.282806px;stroke-linecap:butt;stroke-linejoin:miter;stroke-opacity:1"
       d="m 101.50003,68.640633 c -1.616437,17.215373 -23.573204,13.034871 -18.906078,33.437887 28.867468,-3.275025 19.629208,1.37347 59.604318,13.03671 -0.21194,-1.73794 -1.75148,-3.33998 -6.45374,-5.797 -16.66568,-9.03872 -25.87517,-37.964867 -34.2445,-40.677597 z M 93.678658,86.80979 c 0.07563,-0.002 0.147888,0.002 0.216525,0.01158 -3.042632,2.505679 -4.562576,5.334014 -3.856009,9.107216 2.700834,1.007339 5.239806,0.329791 7.579449,1.999522 0.07134,0.02606 0.119924,0.05561 0.133118,0.09116 -0.04401,-0.03325 -0.08893,-0.05961 -0.133118,-0.09116 -1.220687,-0.44571 -10.451813,0.44595 -10.553339,0.834607 -1.283836,-6.579415 4.268312,-11.905081 6.613374,-11.952946 z"
       id="path983"
       inkscape:connector-curvature="0" />
    <path
       style="fill:#ffffff;stroke:none;stroke-width:0.282806px;stroke-linecap:butt;stroke-linejoin:miter;stroke-opacity:1"
       d="m 103.42147,123.72164 -4.487603,-3.5987 0.76853,-1.35578 c 0.393743,1.40385 1.503853,-0.4812 1.762033,-1.03769 l 1.57975,-3.29892 c 2.15869,-3.29005 -1.79141,-7.8936 -3.578621,-2.78801 1.708931,2.30996 1.365451,4.0935 0.464675,6.6329 l -0.996367,1.8475 c -4.24426,-1.96542 -8.886994,-4.61868 -12.58613,-6.73798 -1.29259,-12.90582 26.681763,-17.690956 23.194843,2.53005 -0.45755,2.6534 -3.407,5.11959 -6.12111,7.80663 z"
       id="path985"
       inkscape:connector-curvature="0"
       sodipodi:nodetypes="cccccccccsc" />
    <path
       style="fill:#ffffff;stroke:none;stroke-width:0.282806px;stroke-linecap:butt;stroke-linejoin:miter;stroke-opacity:1"
       d="m 104.11744,124.12971 5.02281,4.97457 c 11.1706,-4.54898 22.6357,-0.25772 33.45926,2.79189 30.0466,7.16494 45.43375,-1.12949 64.00985,-20.69343 -4.29954,0.2449 -0.98356,3.38417 -23.485,15.0993 -25.13109,10.53377 -43.42145,-9.92892 -68.90568,-8.08469 -4.42155,0.24021 -6.32541,2.53199 -10.10124,5.91236 z"
       id="path987"
       inkscape:connector-curvature="0"
       sodipodi:nodetypes="ccccccc" />
    <path
       style="fill:#ffffff;stroke:none;stroke-width:0.282806px;stroke-linecap:butt;stroke-linejoin:miter;stroke-opacity:1"
       d="m 110.34356,130.8447 c 2.61648,2.72006 3.25279,5.14809 4.11036,8.63659 8.93365,0.37438 18.10952,-2.3836 24.50157,-5.96194 -9.91182,-3.01573 -19.89692,-4.6007 -28.61193,-2.67465 z"
       id="path991"
       inkscape:connector-curvature="0"
       sodipodi:nodetypes="cccc" />
    <path
       style="fill:#ffffff;stroke:none;stroke-width:0.282806px;stroke-linecap:butt;stroke-linejoin:miter;stroke-opacity:1"
       d="m 145.99817,122.60837 7.36257,1.89976 c 12.08515,-10.29852 24.51442,-20.35141 39.3481,-24.35141 -20.23541,3.39077 -30.75106,12.03761 -46.71067,22.45165 z"
       id="path993"
       inkscape:connector-curvature="0"
       sodipodi:nodetypes="cccc" />
    <path
       style="fill:#ffffff;stroke:none;stroke-width:0.282806px;stroke-linecap:butt;stroke-linejoin:miter;stroke-opacity:1"
       d="m 135.6133,138.69067 c 0.76949,-0.24672 6.11098,-4.17257 6.11098,-4.17257 6.39452,1.66851 12.74177,2.86845 18.91166,1.8201 11.55367,5.83026 21.01801,5.5775 33.08216,4.83221 -5.8686,2.04227 -12.18348,2.94143 -18.63195,2.92721 -12.84772,-1.4097 -26.32171,-4.58405 -37.82147,-5.57565 z"
       id="path995"
       inkscape:connector-curvature="0"
       sodipodi:nodetypes="ccccccc" />
    <path
       style="fill:#ffffff;stroke:none;stroke-width:0.282806px;stroke-linecap:butt;stroke-linejoin:miter;stroke-opacity:1"
       d="m 115.09547,141.7133 0.87065,6.63666 c 11.58898,-4.31873 21.84215,-1.18481 31.84583,5.13332 15.08913,8.67581 27.46455,9.24833 41.72442,2.83428 0,0 -9.01397,0.78988 -9.61798,1.02219 -21.33814,3.9392 -37.04479,-17.78204 -53.09428,-16.95785 -2.82042,0.42513 -8.88441,1.24058 -11.72864,1.3314 z"
       id="path997"
       inkscape:connector-curvature="0"
       sodipodi:nodetypes="ccccccc" />
    <path
       style="fill:#ffffff;stroke:none;stroke-width:0.282806px;stroke-linecap:butt;stroke-linejoin:miter;stroke-opacity:1"
       d="m 113.42878,116.68404 c 10.76916,-1.40582 15.10706,0.60395 25.18334,3.81003 0,0 -2.87278,-4.16852 -2.9657,-4.44731 -5.91448,-0.70479 -17.46779,-5.22714 -22.15795,-7.90545 0.93068,5.89859 0.40638,3.41537 -0.0596,8.54273 z"
       id="path999"
       inkscape:connector-curvature="0"
       sodipodi:nodetypes="ccccc" />
    <path
       style="fill:#ffffff;stroke:none;stroke-width:0.282806px;stroke-linecap:butt;stroke-linejoin:miter;stroke-opacity:1"
       d="m 116.22624,149.69184 0.22268,1.70061 c 18.44898,-0.10939 13.66368,31.41519 33.0291,24.35844 -13.46041,-2.34418 -10.94695,-19.85908 -15.34319,-25.9553 -6.78256,-0.96623 -11.62518,-1.69065 -17.90859,-0.10369 z"
       id="path1001"
       inkscape:connector-curvature="0"
       sodipodi:nodetypes="ccccc" />
  </g>
</svg>
