<?xml version="1.0" encoding="UTF-8" standalone="no"?>
<svg
   xmlns:dc="http://purl.org/dc/elements/1.1/"
   xmlns:cc="http://creativecommons.org/ns#"
   xmlns:rdf="http://www.w3.org/1999/02/22-rdf-syntax-ns#"
   xmlns:svg="http://www.w3.org/2000/svg"
   xmlns="http://www.w3.org/2000/svg"
   xmlns:sodipodi="http://sodipodi.sourceforge.net/DTD/sodipodi-0.dtd"
   xmlns:inkscape="http://www.inkscape.org/namespaces/inkscape"
   inkscape:version="1.0 (5b275a35d9, 2020-05-03)"
   sodipodi:docname="favicon.svg"
   id="svg8"
   version="1.1"
   viewBox="0 0 210 210"
   height="210mm"
   width="210mm">
  <defs
     id="defs2" />
  <sodipodi:namedview
     inkscape:document-rotation="0"
     inkscape:pagecheckerboard="true"
     inkscape:window-maximized="1"
     inkscape:window-y="27"
     inkscape:window-x="0"
     inkscape:window-height="1016"
     inkscape:window-width="1920"
     showgrid="false"
     inkscape:current-layer="layer4"
     inkscape:document-units="mm"
     inkscape:cy="443.06144"
     inkscape:cx="-10.967358"
     inkscape:zoom="0.5379861"
     inkscape:pageshadow="2"
     inkscape:pageopacity="1"
     borderopacity="1.0"
     bordercolor="#666666"
     pagecolor="#666666"
     id="base" />
  <metadata
     id="metadata5">
    <rdf:RDF>
      <cc:Work
         rdf:about="">
        <dc:format>image/svg+xml</dc:format>
        <dc:type
           rdf:resource="http://purl.org/dc/dcmitype/StillImage" />
        <dc:title></dc:title>
      </cc:Work>
    </rdf:RDF>
  </metadata>
  <g
     style="display:inline"
     inkscape:label="Vectors"
     id="layer4"
     inkscape:groupmode="layer">
    <rect
       ry="39.68457"
       y="-9.2255287"
       x="-9.440258"
       height="226.5345"
       width="232.08287"
       id="rect851"
       style="fill:#7f70f5;fill-opacity:1;stroke:#2ad4ff;stroke-width:0.264999;stroke-linecap:round;stroke-linejoin:round;paint-order:stroke fill markers" />
    <path
       sodipodi:nodetypes="ccccccccccc"
       inkscape:connector-curvature="0"
       id="path953"
       d="m 66.625005,96.313872 c -9.098158,23.734468 18.600058,33.643418 3.916382,72.641298 17.235947,0.98076 35.977163,-3.2289 48.313683,-9.80051 0.33721,-0.51437 0.96291,-0.51191 0.62018,-2.24605 -1.29766,-54.7736 -41.489728,-37.6212 -49.783778,-59.363327 -2.561469,-0.496874 -1.481459,0.911784 -3.066467,-1.231411 z m 3.842434,8.027168 c 1.354343,-1e-4 2.452278,1.09784 2.45218,2.45218 9.8e-5,1.35434 -1.097837,2.45228 -2.45218,2.45218 -1.354341,1e-4 -2.452275,-1.09784 -2.452178,-2.45218 -9.7e-5,-1.35434 1.097837,-2.45228 2.452178,-2.45218 z"
       style="fill:#ffffff;stroke:none;stroke-width:0.310387px;stroke-linecap:butt;stroke-linejoin:miter;stroke-opacity:1" />
    <path
       sodipodi:nodetypes="ccccccccccc"
       inkscape:connector-curvature="0"
       id="path955"
       d="m 62.587023,92.553762 c -14.792873,4.789881 0.07343,49.822948 -27.808182,67.434808 11.329805,5.37543 23.655331,7.78543 32.142344,8.55771 3.584895,-12.97883 5.80829,-20.00646 1.021933,-37.19671 -2.662478,-7.91346 -10.076908,-26.47788 -5.158367,-37.570732 -0.07098,0.143497 -0.378653,-0.983834 -0.197728,-1.225076 z m -2.937056,26.066898 c 1.274645,-6e-5 2.307966,1.03325 2.307895,2.3079 -2.63e-4,1.2744 -1.033486,2.30736 -2.307895,2.30729 -1.274411,7e-5 -2.307635,-1.03289 -2.307898,-2.30729 -7e-5,-1.27465 1.033252,-2.30796 2.307898,-2.3079 z"
       style="fill:#ffffff;stroke:none;stroke-width:0.310387px;stroke-linecap:butt;stroke-linejoin:miter;stroke-opacity:1" />
    <path
       sodipodi:nodetypes="cccccccccc"
       inkscape:connector-curvature="0"
       id="path957"
       d="M 59.711451,83.817453 C 48.125134,90.174267 37.385702,126.37386 7.084773,134.04489 7.166543,135.06813 17.15516,151.42163 32.542488,158.53382 57.958715,143.7294 45.541957,93.742293 60.600527,89.958428 59.558517,88.140445 59.077968,86.239805 59.711451,83.817453 Z M 49.336869,102.03314 c 0.756866,9e-5 1.370311,0.61381 1.370071,1.37067 -9.3e-5,0.75664 -0.61344,1.36999 -1.370071,1.37007 -0.756629,-9e-5 -1.369974,-0.61344 -1.370067,-1.37007 -2.4e-4,-0.75686 0.613203,-1.37057 1.370067,-1.37067 z"
       style="fill:#ffffff;stroke:none;stroke-width:0.310387px;stroke-linecap:butt;stroke-linejoin:miter;stroke-opacity:1" />
    <path
       sodipodi:nodetypes="ccccccccccccccccccccc"
       inkscape:connector-curvature="0"
       id="path959"
       d="M 56.249652,81.797483 C 35.20436,81.688888 20.610463,105.05652 -2.390041,104.30777 c 1.49520181,9.61995 1.92923141,14.01276 7.936843,26.90303 26.987064,-7.45115 39.510609,-46.540043 53.874617,-49.226058 -1.079954,-0.121489 -2.136754,-0.181989 -3.171767,-0.187325 z m -14.412995,6.821806 c 0.677173,1.21e-4 1.226005,0.549217 1.225787,1.226392 -1.21e-4,0.676933 -0.548854,1.225657 -1.225787,1.225777 -0.676932,-1.2e-4 -1.225664,-0.548844 -1.225785,-1.225777 -2.18e-4,-0.677164 0.548613,-1.226271 1.225785,-1.226392 z M 31.524169,101.02378 c 1.592956,1.6e-4 2.884258,1.29147 2.884417,2.88443 1.68e-4,1.59318 -1.29123,2.88485 -2.884417,2.88501 -1.593423,1.8e-4 -2.88519,-1.2916 -2.885023,-2.88501 1.59e-4,-1.59319 1.291831,-2.8846 2.885023,-2.88443 z m -16.876083,8.07734 c 2.310206,-7e-5 4.183014,1.87274 4.182951,4.18295 -2.7e-4,2.30996 -1.872981,4.18241 -4.182951,4.18234 -2.309734,-2.7e-4 -4.182074,-1.87261 -4.182344,-4.18234 -6.4e-5,-2.30997 1.872375,-4.18268 4.182344,-4.18295 z"
       style="fill:#ffffff;stroke:none;stroke-width:0.310387px;stroke-linecap:butt;stroke-linejoin:miter;stroke-opacity:1" />
    <path
       sodipodi:nodetypes="cccccccccccccccccccc"
       inkscape:connector-curvature="0"
       id="path961"
       d="M 4.746336,64.720515 C -0.75747089,73.422481 -4.4446659,87.485023 -2.7614172,101.11355 12.99648,102.26495 40.504431,76.042441 59.252281,79.892131 l -0.07214,-1.834432 C 45.47204,68.054345 15.112888,82.736103 4.746336,64.720515 Z m 5.318085,12.565463 c 1.57733,-1.09e-4 2.856037,1.278596 2.855925,2.855921 -2.21e-4,1.57708 -1.278831,2.855413 -2.855925,2.855292 -1.576858,-2.19e-4 -2.855097,-1.278453 -2.855318,-2.855292 -1.14e-4,-1.577095 1.278225,-2.855691 2.855318,-2.855921 z m 21.519765,1.530106 c 1.182879,0 2.141792,0.958904 2.141792,2.141781 0,1.182866 -0.958913,2.141781 -2.141792,2.141781 -1.182879,0 -2.141792,-0.958915 -2.141792,-2.141781 0,-1.182877 0.958913,-2.141781 2.141792,-2.141781 z M 16.795941,87.3832 c 0.844878,-1.43e-4 1.529918,0.684626 1.530111,1.5295 1.46e-4,0.845118 -0.684995,1.530249 -1.530111,1.530106 -0.845119,1.43e-4 -1.530258,-0.684988 -1.530112,-1.530106 1.91e-4,-0.844874 0.685231,-1.529643 1.530112,-1.5295 z"
       style="fill:#ffffff;stroke:none;stroke-width:0.310387px;stroke-linecap:butt;stroke-linejoin:miter;stroke-opacity:1" />
    <path
       sodipodi:nodetypes="ccccccccccccccccccc"
       inkscape:connector-curvature="0"
       id="path963"
       d="M 26.026944,42.135586 C 17.308218,47.378023 11.645279,53.21054 6.615098,60.905591 15.197918,78.791407 48.489393,64.898475 59.281987,75.324864 52.811919,63.900954 29.768784,58.873975 26.026944,42.135586 Z m -2.754707,12.100606 c 1.210988,3.7e-5 2.192678,0.981725 2.192718,2.192713 2.95e-4,1.211224 -0.981493,2.193284 -2.192718,2.193321 -1.211223,-3.9e-5 -2.19301,-0.982098 -2.192714,-2.193321 4e-5,-1.210987 0.981728,-2.192674 2.192714,-2.192713 z m 8.719936,6.731515 c 1.18288,-10e-7 2.141794,0.958914 2.141792,2.141791 2e-6,1.182876 -0.958912,2.141781 -2.141792,2.141781 -1.18288,0 -2.141792,-0.958905 -2.14179,-2.141781 -2e-6,-1.182877 0.95891,-2.141791 2.14179,-2.141791 z m -14.4821,2.651624 c 0.563333,1.32e-4 1.019879,0.456939 1.019671,1.02027 -1.25e-4,0.563089 -0.456574,1.019538 -1.019671,1.01967 -0.563333,2.08e-4 -1.020152,-0.45634 -1.020276,-1.01967 -2.09e-4,-0.563561 0.456707,-1.020478 1.020276,-1.02027 z"
       style="fill:#ffffff;stroke:none;stroke-width:0.310387px;stroke-linecap:butt;stroke-linejoin:miter;stroke-opacity:1" />
    <path
       sodipodi:nodetypes="ccccccccc"
       inkscape:connector-curvature="0"
       id="path965"
       d="M 50.432245,34.867174 C 42.797356,35.43174 36.448457,36.375979 28.587863,40.858268 33.450001,56.631319 58.465055,62.274001 61.391043,76.979845 65.974115,65.929264 36.219901,50.343705 50.432245,34.867174 Z m -9.56676,6.620717 c 1.013762,9.3e-5 1.835555,0.821885 1.835651,1.835647 -9.4e-5,1.013764 -0.821888,1.835558 -1.835651,1.835651 -1.013763,-9.5e-5 -1.835555,-0.821888 -1.835648,-1.835651 9.5e-5,-1.01376 0.821887,-1.835552 1.835648,-1.835647 z"
       style="fill:#ffffff;stroke:none;stroke-width:0.310387px;stroke-linecap:butt;stroke-linejoin:miter;stroke-opacity:1" />
    <path
       sodipodi:nodetypes="ccccccccc"
       inkscape:connector-curvature="0"
       id="path967"
       d="m 52.934741,34.931583 c -10.100752,15.903394 10.519752,24.665046 10.46533,42.40169 8.228039,-7.894422 -8.073836,-27.948425 6.007997,-39.537524 -4.772789,-1.39731 -7.582027,-2.366167 -16.473327,-2.864166 z m 4.249101,13.185373 c 1.07045,-1.6e-4 1.938261,0.867652 1.9381,1.938102 -1.75e-4,1.070213 -0.867886,1.937654 -1.9381,1.937494 -1.069975,-1.75e-4 -1.937318,-0.867519 -1.937492,-1.937494 -1.61e-4,-1.070213 0.867279,-1.937926 1.937492,-1.938102 z"
       style="fill:#ffffff;stroke:none;stroke-width:0.310387px;stroke-linecap:butt;stroke-linejoin:miter;stroke-opacity:1" />
    <path
       sodipodi:nodetypes="ccccccccc"
       inkscape:connector-curvature="0"
       id="path975"
       d="M 71.649116,38.662551 C 58.33061,51.788792 74.216192,62.413662 64.887748,78.702723 79.351741,71.929888 65.874476,52.962203 85.431839,45.784626 80.89746,42.530113 77.032685,40.440039 71.649116,38.662551 Z m 1.190482,5.578814 c 1.605205,2.61e-4 2.90632,1.293232 2.90624,2.888052 8.3e-5,1.594821 -1.301033,2.887795 -2.90624,2.888056 -1.605446,7.3e-5 -2.906933,-1.292999 -2.90685,-2.888056 -8e-5,-1.595056 1.301407,-2.888125 2.90685,-2.888052 z"
       style="fill:#ffffff;stroke:none;stroke-width:0.310387px;stroke-linecap:butt;stroke-linejoin:miter;stroke-opacity:1" />
    <path
       sodipodi:nodetypes="ccccc"
       inkscape:connector-curvature="0"
       id="path977"
       d="m 86.808678,46.807922 c 4.554799,3.250862 6.980591,6.872532 8.315541,8.091402 C 77.246233,59.059901 81.692355,76.713585 68.78007,78.051771 l -2.66e-4,1.1e-4 c 12.787178,-13.607594 0.0118,-21.293578 18.028874,-31.243959 z"
       style="fill:#ffffff;stroke:none;stroke-width:0.310387px;stroke-linecap:butt;stroke-linejoin:miter;stroke-opacity:1" />
    <path
       sodipodi:nodetypes="cccccc"
       inkscape:connector-curvature="0"
       id="path979"
       d="m 96.285699,56.383055 c 1.64947,1.72224 2.4435,3.664204 3.27509,5.834051 -3.19167,12.12948 -13.57618,11.160491 -19.735065,21.392278 -2.603274,-3.186556 -5.038145,-1.251277 -8.132206,-2.43594 l -0.881582,-2.306328 c 11.174815,-1.602327 9.93511,-20.835374 25.473763,-22.484061 z"
       style="fill:#ffffff;stroke:none;stroke-width:0.310387px;stroke-linecap:butt;stroke-linejoin:miter;stroke-opacity:1" />
    <path
       sodipodi:nodetypes="cccsscc"
       inkscape:connector-curvature="0"
       id="path981"
       d="m 72.640066,82.805106 c 4.684453,0.186726 4.676399,0.839037 6.553707,2.60524 -1.607174,3.28451 -1.495005,6.684023 -1.520666,10.232664 -4.14362,-0.04307 -6.096059,0.20637 -8.523215,-0.608555 -7.86176,-2.63964 -8.722857,-9.94257 -6.318053,-13.230858 2.827823,-3.866722 9.849525,-2.6799 10.573327,10.841161 1.746265,-3.502201 -0.336859,-6.920221 -0.7651,-9.839652 z"
       style="fill:#ffffff;stroke:none;stroke-width:0.310387px;stroke-linecap:butt;stroke-linejoin:miter;stroke-opacity:1" />
    <path
       inkscape:connector-curvature="0"
       id="path983"
       d="m 104.92889,59.33575 c -1.77408,18.894265 -25.872137,14.306069 -20.74986,36.698833 31.6827,-3.594402 21.54351,1.507412 65.41709,14.308087 -0.2326,-1.90742 -1.92228,-3.6657 -7.08312,-6.36233 -18.29096,-9.920207 -28.39859,-41.667307 -37.58411,-44.64459 z m -8.584141,19.941064 c 0.083,-0.0022 0.16231,0.0022 0.23764,0.01271 -3.339358,2.75004 -5.00753,5.854202 -4.232057,9.995377 2.964227,1.105578 5.750807,0.361954 8.318618,2.194522 0.0783,0.0286 0.13162,0.06104 0.1461,0.100048 -0.0483,-0.03649 -0.0976,-0.06542 -0.1461,-0.100048 -1.339731,-0.489177 -11.471102,0.48944 -11.58253,0.915992 -1.409039,-7.221051 4.684569,-13.066091 7.258329,-13.118624 z"
       style="fill:#ffffff;stroke:none;stroke-width:0.310387px;stroke-linecap:butt;stroke-linejoin:miter;stroke-opacity:1" />
    <path
       sodipodi:nodetypes="cccccccccsc"
       inkscape:connector-curvature="0"
       id="path985"
       d="m 107.03771,119.78841 -4.92525,-3.94966 0.84348,-1.488 c 0.43214,1.54075 1.65052,-0.52813 1.93387,-1.13888 l 1.73381,-3.62065 c 2.36921,-3.6109 -1.96611,-8.6634 -3.92761,-3.0599 1.87558,2.53523 1.49861,4.49271 0.50999,7.27976 l -1.09354,2.02767 c -4.658171,-2.15709 -9.753678,-5.0691 -13.813565,-7.39508 -1.418647,-14.164433 29.283845,-19.416228 25.456875,2.77679 -0.50218,2.91215 -3.73926,5.61886 -6.71806,8.56795 z"
       style="fill:#ffffff;stroke:none;stroke-width:0.310387px;stroke-linecap:butt;stroke-linejoin:miter;stroke-opacity:1" />
    <path
       sodipodi:nodetypes="ccccccc"
       inkscape:connector-curvature="0"
       id="path987"
       d="m 107.80155,120.23627 5.51264,5.45971 c 12.25999,-4.99261 24.8432,-0.28285 36.72231,3.06416 32.97683,7.86368 49.86458,-1.23964 70.25227,-22.71151 -4.71884,0.26879 -1.07948,3.7142 -25.77532,16.57183 -27.58195,11.56105 -47.65604,-10.89722 -75.62556,-8.87314 -4.85275,0.26363 -6.94228,2.77891 -11.08634,6.48895 z"
       style="fill:#ffffff;stroke:none;stroke-width:0.310387px;stroke-linecap:butt;stroke-linejoin:miter;stroke-opacity:1" />
    <path
       sodipodi:nodetypes="cccc"
       inkscape:connector-curvature="0"
       id="path991"
       d="m 114.63485,127.60613 c 2.87165,2.98533 3.57002,5.65015 4.51122,9.47885 9.80489,0.41089 19.87561,-2.61605 26.89104,-6.54336 -10.87845,-3.30984 -21.83733,-5.04937 -31.40226,-2.93549 z"
       style="fill:#ffffff;stroke:none;stroke-width:0.310387px;stroke-linecap:butt;stroke-linejoin:miter;stroke-opacity:1" />
    <path
       sodipodi:nodetypes="cccc"
       inkscape:connector-curvature="0"
       id="path993"
       d="m 153.7666,118.56657 8.0806,2.08503 c 13.26372,-11.30286 26.90513,-22.336145 43.18543,-26.72623 -22.20883,3.721447 -33.74999,13.21155 -51.26603,24.6412 z"
       style="fill:#ffffff;stroke:none;stroke-width:0.310387px;stroke-linecap:butt;stroke-linejoin:miter;stroke-opacity:1" />
    <path
       sodipodi:nodetypes="ccccccc"
       inkscape:connector-curvature="0"
       id="path995"
       d="m 142.36897,136.21725 c 0.84453,-0.27077 6.70695,-4.57948 6.70695,-4.57948 7.01813,1.83123 13.98437,3.14819 20.75597,1.9976 12.68042,6.39884 23.06775,6.12143 36.30843,5.30346 -6.44092,2.24143 -13.37165,3.22828 -20.44899,3.21268 -14.10067,-1.54718 -28.88868,-5.0311 -41.50993,-6.1194 z"
       style="fill:#ffffff;stroke:none;stroke-width:0.310387px;stroke-linecap:butt;stroke-linejoin:miter;stroke-opacity:1" />
    <path
       sodipodi:nodetypes="ccccccc"
       inkscape:connector-curvature="0"
       id="path997"
       d="m 119.85018,139.53467 0.95556,7.28388 c 12.71918,-4.73991 23.97226,-1.30035 34.95153,5.63393 16.56067,9.52191 30.14297,10.15026 45.7935,3.11069 0,0 -9.89303,0.86691 -10.55595,1.12188 -23.4191,4.32337 -40.6575,-19.5162 -58.27218,-18.61162 -3.09548,0.46658 -9.75085,1.36155 -12.87246,1.46124 z"
       style="fill:#ffffff;stroke:none;stroke-width:0.310387px;stroke-linecap:butt;stroke-linejoin:miter;stroke-opacity:1" />
    <path
       sodipodi:nodetypes="ccccc"
       inkscape:connector-curvature="0"
       id="path999"
       d="m 118.02096,112.06448 c 11.8194,-1.54292 16.58034,0.66285 27.63929,4.1816 0,0 -3.15294,-4.57505 -3.25493,-4.88103 -6.49127,-0.77353 -19.1713,-5.73691 -24.31885,-8.67641 1.02144,6.47384 0.446,3.74845 -0.0654,9.37584 z"
       style="fill:#ffffff;stroke:none;stroke-width:0.310387px;stroke-linecap:butt;stroke-linejoin:miter;stroke-opacity:1" />
    <path
       sodipodi:nodetypes="ccccc"
       inkscape:connector-curvature="0"
       id="path1001"
       d="m 121.09123,148.2913 0.2444,1.86645 c 20.24817,-0.12005 14.9962,34.4789 36.25019,26.73395 -14.77311,-2.5728 -12.01453,-21.79579 -16.8395,-28.48654 -7.44402,-1.06046 -12.7589,-1.85552 -19.65509,-0.1138 z"
       style="fill:#ffffff;stroke:none;stroke-width:0.310387px;stroke-linecap:butt;stroke-linejoin:miter;stroke-opacity:1" />
  </g>
</svg>
