<?xml version="1.0" encoding="UTF-8" standalone="no"?>
<svg
   xmlns:dc="http://purl.org/dc/elements/1.1/"
   xmlns:cc="http://creativecommons.org/ns#"
   xmlns:rdf="http://www.w3.org/1999/02/22-rdf-syntax-ns#"
   xmlns:svg="http://www.w3.org/2000/svg"
   xmlns="http://www.w3.org/2000/svg"
   xmlns:sodipodi="http://sodipodi.sourceforge.net/DTD/sodipodi-0.dtd"
   xmlns:inkscape="http://www.inkscape.org/namespaces/inkscape"
   width="210mm"
   height="140mm"
   viewBox="0 0 210 140"
   version="1.1"
   id="svg8"
   sodipodi:docname="nautilushell_green.svg"
   inkscape:version="1.0 (5b275a35d9, 2020-05-03)"
   inkscape:export-filename="/home/canuto/Documents/Repos/nautilushell-logo/nautilushell_green.png"
   inkscape:export-xdpi="96"
   inkscape:export-ydpi="96">
  <defs
     id="defs2" />
  <sodipodi:namedview
     id="base"
     pagecolor="#ffffff"
     bordercolor="#666666"
     borderopacity="1.0"
     inkscape:pageopacity="0.0"
     inkscape:pageshadow="2"
     inkscape:zoom="0.5379861"
     inkscape:cx="-47.325736"
     inkscape:cy="446.77901"
     inkscape:document-units="mm"
     inkscape:current-layer="layer4"
     showgrid="false"
     inkscape:window-width="1920"
     inkscape:window-height="1016"
     inkscape:window-x="0"
     inkscape:window-y="27"
     inkscape:window-maximized="1"
     inkscape:pagecheckerboard="true"
     inkscape:document-rotation="0" />
  <metadata
     id="metadata5">
    <rdf:RDF>
      <cc:Work
         rdf:about="">
        <dc:format>image/svg+xml</dc:format>
        <dc:type
           rdf:resource="http://purl.org/dc/dcmitype/StillImage" />
        <dc:title />
      </cc:Work>
    </rdf:RDF>
  </metadata>
  <g
     inkscape:groupmode="layer"
     id="layer4"
     inkscape:label="Vectors"
     transform="translate(0,-70)"
     style="display:inline">
    <path
       style="fill:#afe9dd;stroke:none;stroke-width:0.196707px;stroke-linecap:butt;stroke-linejoin:miter;stroke-opacity:1"
       d="m 82.780821,131.76767 c -5.765913,15.04162 11.787698,21.32137 2.481989,46.03609 10.923198,0.62155 22.80035,-2.0463 30.61856,-6.21102 0.21371,-0.32599 0.61025,-0.32442 0.39305,-1.42343 -0.82239,-34.7125 -26.293925,-23.84226 -31.55024,-37.62123 -1.623318,-0.3149 -0.938867,0.57783 -1.943359,-0.78041 z m 2.435124,5.08719 c 0.858308,-6e-5 1.554119,0.69575 1.554058,1.55407 6.1e-5,0.8583 -0.69575,1.55411 -1.554058,1.55405 -0.858307,6e-5 -1.554118,-0.69575 -1.554056,-1.55405 -6.2e-5,-0.85832 0.695749,-1.55413 1.554056,-1.55407 z"
       id="path953"
       inkscape:connector-curvature="0"
       sodipodi:nodetypes="ccccccccccc" />
    <path
       style="fill:#afe9dd;stroke:none;stroke-width:0.196707px;stroke-linecap:butt;stroke-linejoin:miter;stroke-opacity:1"
       d="m 80.221769,129.38471 c -9.374912,3.03557 0.04654,31.57508 -17.623302,42.73651 7.18021,3.40665 14.991453,4.93398 20.370056,5.42341 2.27191,-8.22527 3.680977,-12.67899 0.647645,-23.57324 -1.687332,-5.01511 -6.386191,-16.78023 -3.269089,-23.81029 -0.04498,0.0909 -0.23997,-0.62351 -0.12531,-0.77639 z m -1.861346,16.5198 c 0.807801,-5e-5 1.462663,0.65481 1.462618,1.46262 -1.66e-4,0.80764 -0.654966,1.46227 -1.462618,1.46223 -0.807651,4e-5 -1.462452,-0.65459 -1.462618,-1.46223 -4.5e-5,-0.80781 0.654818,-1.46267 1.462618,-1.46262 z"
       id="path955"
       inkscape:connector-curvature="0"
       sodipodi:nodetypes="ccccccccccc" />
    <path
       style="fill:#afe9dd;stroke:none;stroke-width:0.196707px;stroke-linecap:butt;stroke-linejoin:miter;stroke-opacity:1"
       d="m 78.399389,123.84807 c -7.342773,4.02863 -14.148837,26.96999 -33.351906,31.83147 0.05182,0.64847 6.38206,11.01242 16.133706,15.51974 16.107412,-9.38223 8.238351,-41.06135 17.781648,-43.45937 -0.660369,-1.15214 -0.964915,-2.35667 -0.563448,-3.89184 z m -6.574841,11.54417 c 0.47966,6e-5 0.868427,0.38901 0.868275,0.86866 -5.9e-5,0.47952 -0.388764,0.86823 -0.868275,0.86827 -0.47951,-5e-5 -0.868215,-0.38876 -0.868274,-0.86827 -1.52e-4,-0.47965 0.388614,-0.86859 0.868274,-0.86866 z"
       id="path957"
       inkscape:connector-curvature="0"
       sodipodi:nodetypes="cccccccccc" />
    <path
       style="fill:#afe9dd;stroke:none;stroke-width:0.196707px;stroke-linecap:butt;stroke-linejoin:miter;stroke-opacity:1"
       d="m 76.205491,122.56793 c -13.337353,-0.0688 -22.586166,14.74037 -37.162626,14.26585 0.947577,6.0966 1.222641,8.88052 5.029937,17.04966 17.102923,-4.72212 25.039659,-29.49458 34.142781,-31.19684 -0.684416,-0.077 -1.354158,-0.11533 -2.010092,-0.11872 z m -9.134166,4.32331 c 0.429154,7e-5 0.776974,0.34806 0.776835,0.77722 -7.6e-5,0.429 -0.347833,0.77676 -0.776835,0.77683 -0.429003,-7e-5 -0.77676,-0.34783 -0.776836,-0.77683 -1.39e-4,-0.42915 0.347681,-0.77715 0.776836,-0.77722 z m -6.535491,7.86132 c 1.009528,1.1e-4 1.827884,0.81847 1.827986,1.828 1.05e-4,1.00967 -0.818311,1.82826 -1.827986,1.82837 -1.009824,1e-4 -1.828476,-0.81855 -1.828369,-1.82837 1e-4,-1.00968 0.818691,-1.8281 1.828369,-1.828 z m -10.695137,5.11899 c 1.464082,-5e-5 2.650965,1.18683 2.650925,2.65092 -1.71e-4,1.46393 -1.186992,2.65058 -2.650925,2.65054 -1.463782,-1.7e-4 -2.65037,-1.18676 -2.650541,-2.65054 -3.9e-5,-1.46394 1.186609,-2.65075 2.650541,-2.65092 z"
       id="path959"
       inkscape:connector-curvature="0"
       sodipodi:nodetypes="ccccccccccccccccccccc" />
    <path
       style="fill:#afe9dd;stroke:none;stroke-width:0.196707px;stroke-linecap:butt;stroke-linejoin:miter;stroke-opacity:1"
       d="m 43.56551,111.74541 c -3.488011,5.51486 -5.824753,14.42698 -4.758002,23.06405 9.986491,0.72969 27.419524,-15.88879 39.300884,-13.44905 l -0.04572,-1.16257 c -8.687445,-6.33961 -27.927411,2.96493 -34.497164,-8.45243 z m 3.370312,7.96335 c 0.999625,-6e-5 1.809999,0.81032 1.809928,1.80994 -1.4e-4,0.99947 -0.810453,1.80961 -1.809928,1.80954 -0.999326,-1.4e-4 -1.809405,-0.81022 -1.809545,-1.80954 -7.3e-5,-0.99948 0.810069,-1.80979 1.809545,-1.80994 z m 13.638047,0.96971 c 0.749644,0 1.357351,0.6077 1.357351,1.35735 0,0.74964 -0.607707,1.35735 -1.357351,1.35735 -0.749644,0 -1.35735,-0.60771 -1.35735,-1.35735 0,-0.74965 0.607706,-1.35735 1.35735,-1.35735 z m -9.37198,5.4294 c 0.535439,-9e-5 0.969579,0.43387 0.969701,0.96931 9.3e-5,0.5356 -0.434112,0.9698 -0.969701,0.9697 -0.535589,1e-4 -0.969793,-0.4341 -0.969701,-0.9697 1.22e-4,-0.53544 0.434262,-0.9694 0.969701,-0.96931 z"
       id="path961"
       inkscape:connector-curvature="0"
       sodipodi:nodetypes="cccccccccccccccccccc" />
    <path
       style="fill:#afe9dd;stroke:none;stroke-width:0.196707px;stroke-linecap:butt;stroke-linejoin:miter;stroke-opacity:1"
       d="m 57.051994,97.432322 c -5.525452,3.322368 -9.114311,7.018688 -12.302165,11.895388 5.439322,11.33512 26.537635,2.53049 33.37739,9.13819 -4.100375,-7.23988 -18.703851,-10.42571 -21.075225,-21.033578 z m -1.745782,7.668698 c 0.767458,2e-5 1.389599,0.62216 1.389624,1.38962 1.88e-4,0.76761 -0.622017,1.38998 -1.389624,1.39001 -0.767608,-3e-5 -1.38981,-0.6224 -1.389622,-1.39001 2.5e-5,-0.76746 0.622164,-1.38959 1.389622,-1.38962 z m 5.526218,4.26606 c 0.749644,0 1.357351,0.60771 1.35735,1.35736 1e-6,0.74964 -0.607706,1.35735 -1.35735,1.35735 -0.749645,0 -1.357352,-0.60771 -1.35735,-1.35735 -2e-6,-0.74965 0.607705,-1.35736 1.35735,-1.35736 z m -9.177962,1.68046 c 0.357009,9e-5 0.646343,0.28959 0.646211,0.6466 -7.9e-5,0.35686 -0.289351,0.64613 -0.646211,0.64621 -0.35701,1.3e-4 -0.646516,-0.28921 -0.646596,-0.64621 -1.32e-4,-0.35715 0.289436,-0.64673 0.646596,-0.6466 z"
       id="path963"
       inkscape:connector-curvature="0"
       sodipodi:nodetypes="ccccccccccccccccccc" />
    <path
       style="fill:#afe9dd;stroke:none;stroke-width:0.196707px;stroke-linecap:butt;stroke-linejoin:miter;stroke-opacity:1"
       d="m 72.518737,92.825997 c -4.838575,0.357791 -8.862159,0.956198 -13.843774,3.796832 3.081358,9.996081 18.934529,13.572111 20.788859,22.891921 2.904501,-7.00329 -15.95209,-16.88057 -6.945085,-26.688753 z m -6.062888,4.195847 c 0.642466,5.7e-5 1.163273,0.520867 1.163334,1.163338 -5.9e-5,0.642461 -0.520867,1.163271 -1.163334,1.163328 -0.642468,-5.7e-5 -1.163275,-0.520867 -1.163334,-1.163328 6.1e-5,-0.642471 0.520867,-1.163271 1.163334,-1.163338 z"
       id="path965"
       inkscape:connector-curvature="0"
       sodipodi:nodetypes="ccccccccc" />
    <path
       style="fill:#afe9dd;stroke:none;stroke-width:0.196707px;stroke-linecap:butt;stroke-linejoin:miter;stroke-opacity:1"
       d="m 74.104681,92.866817 c -6.401302,10.078703 6.666843,15.631353 6.632354,26.871923 5.21448,-5.00308 -5.116756,-17.71223 3.807539,-25.056769 -3.024732,-0.88554 -4.805073,-1.49955 -10.439893,-1.815154 z m 2.692848,8.356163 c 0.678393,-9e-5 1.228363,0.54987 1.228261,1.22826 -1.09e-4,0.67825 -0.550018,1.22798 -1.228261,1.22789 -0.678091,-1.2e-4 -1.227766,-0.5498 -1.227876,-1.22789 -1.03e-4,-0.67824 0.549634,-1.22814 1.227876,-1.22826 z"
       id="path967"
       inkscape:connector-curvature="0"
       sodipodi:nodetypes="ccccccccc" />
    <path
       style="fill:#afe9dd;stroke:none;stroke-width:0.196707px;stroke-linecap:butt;stroke-linejoin:miter;stroke-opacity:1"
       d="m 85.964827,95.2313 c -8.440539,8.3187 1.626873,15.05215 -4.284985,25.37533 9.166488,-4.29228 0.625334,-16.313 13.01972,-20.861751 -2.873641,-2.062528 -5.322924,-3.387104 -8.734735,-4.513579 z m 0.754462,3.535551 c 1.017291,1.64e-4 1.841866,0.81958 1.841816,1.830289 5.3e-5,1.01071 -0.824523,1.83013 -1.841816,1.83029 -1.017443,5e-5 -1.842254,-0.81944 -1.842201,-1.83029 -5.1e-5,-1.010863 0.824759,-1.830337 1.842201,-1.830289 z"
       id="path975"
       inkscape:connector-curvature="0"
       sodipodi:nodetypes="ccccccccc" />
    <path
       style="fill:#afe9dd;stroke:none;stroke-width:0.196707px;stroke-linecap:butt;stroke-linejoin:miter;stroke-opacity:1"
       d="m 95.572128,100.39339 c 2.886582,2.06022 4.423914,4.35543 5.269932,5.12789 -11.330086,2.63674 -8.512378,13.82473 -16.695477,14.67281 l -1.68e-4,6e-5 c 8.103813,-8.6238 0.0075,-13.49475 11.425713,-19.80076 z"
       id="path977"
       inkscape:connector-curvature="0"
       sodipodi:nodetypes="ccccc" />
    <path
       style="fill:#afe9dd;stroke:none;stroke-width:0.196707px;stroke-linecap:butt;stroke-linejoin:miter;stroke-opacity:1"
       d="m 101.57814,106.46158 c 1.04535,1.09146 1.54856,2.32218 2.07558,3.6973 -2.02271,7.68705 -8.603842,7.07295 -12.507006,13.55733 -1.649813,-2.01947 -3.192901,-0.793 -5.153747,-1.54377 l -0.558699,-1.46163 c 7.081986,-1.01547 6.296329,-13.20438 16.143872,-14.24923 z"
       id="path979"
       inkscape:connector-curvature="0"
       sodipodi:nodetypes="cccccc" />
    <path
       style="fill:#afe9dd;stroke:none;stroke-width:0.196707px;stroke-linecap:butt;stroke-linejoin:miter;stroke-opacity:1"
       d="m 86.592837,123.20651 c 2.96875,0.11833 2.963645,0.53173 4.153381,1.65107 -1.018539,2.08154 -0.947453,4.23599 -0.963715,6.48493 -2.626,-0.0273 -3.863349,0.13079 -5.401547,-0.38567 -4.982353,-1.67287 -5.528069,-6.30109 -4.004036,-8.38504 1.792119,-2.45053 6.242089,-1.69839 6.700796,6.87057 1.106687,-2.21951 -0.213483,-4.38568 -0.484879,-6.23586 z"
       id="path981"
       inkscape:connector-curvature="0"
       sodipodi:nodetypes="cccsscc" />
    <path
       style="fill:#afe9dd;stroke:none;stroke-width:0.196707px;stroke-linecap:butt;stroke-linejoin:miter;stroke-opacity:1"
       d="m 107.05572,108.33284 c -1.12431,11.97421 -16.396338,9.06644 -13.15012,23.25783 20.07876,-2.27795 13.6531,0.95532 41.45776,9.0677 -0.1474,-1.20882 -1.21823,-2.32312 -4.48889,-4.03209 -11.5918,-6.28692 -17.99747,-26.40661 -23.81875,-28.29344 z m -5.44015,12.63761 c 0.0526,-9.6e-4 0.10286,9.6e-4 0.1506,0.008 -2.116302,1.74284 -3.173498,3.71009 -2.682046,6.33456 1.878566,0.70066 3.644546,0.22939 5.271886,1.39077 0.0496,0.0181 0.0834,0.0387 0.0926,0.0634 -0.0306,-0.0231 -0.0618,-0.0415 -0.0926,-0.0634 -0.84905,-0.31001 -7.269758,0.31019 -7.340375,0.58052 -0.892971,-4.57633 2.968824,-8.28062 4.599935,-8.31391 z"
       id="path983"
       inkscape:connector-curvature="0" />
    <path
       style="fill:#afe9dd;stroke:none;stroke-width:0.196707px;stroke-linecap:butt;stroke-linejoin:miter;stroke-opacity:1"
       d="m 108.39218,146.64456 -3.12135,-2.50308 0.53454,-0.94301 c 0.27387,0.97644 1.04601,-0.3347 1.22559,-0.72176 l 1.09879,-2.29457 c 1.50148,-2.28839 -1.24601,-5.49039 -2.4891,-1.9392 1.18863,1.6067 0.94973,2.84724 0.3232,4.61352 l -0.69302,1.28502 c -2.9521,-1.36705 -6.181351,-3.21251 -8.754285,-4.68659 -0.899061,-8.97667 18.558495,-12.30499 16.133175,1.75977 -0.31825,1.84556 -2.36974,3.56093 -4.25754,5.4299 z"
       id="path985"
       inkscape:connector-curvature="0"
       sodipodi:nodetypes="cccccccccsc" />
    <path
       style="fill:#afe9dd;stroke:none;stroke-width:0.196707px;stroke-linecap:butt;stroke-linejoin:miter;stroke-opacity:1"
       d="m 108.87626,146.92839 3.49361,3.46006 c 7.76971,-3.16404 15.74426,-0.17925 23.27259,1.9419 20.8989,4.98357 31.60144,-0.78561 44.52204,-14.39331 -2.99054,0.17034 -0.68412,2.35386 -16.33498,10.50232 -17.47994,7.32676 -30.20179,-6.90606 -47.92735,-5.62331 -3.07541,0.16707 -4.39963,1.76112 -7.02591,4.11234 z"
       id="path987"
       inkscape:connector-curvature="0"
       sodipodi:nodetypes="ccccccc" />
    <path
       style="fill:#afe9dd;stroke:none;stroke-width:0.196707px;stroke-linecap:butt;stroke-linejoin:miter;stroke-opacity:1"
       d="m 113.20684,151.599 c 1.81989,1.89195 2.26247,3.58076 2.85895,6.00718 6.21381,0.2604 12.59608,-1.65791 17.04207,-4.14682 -6.89416,-2.0976 -13.8393,-3.20002 -19.90102,-1.86036 z"
       id="path991"
       inkscape:connector-curvature="0"
       sodipodi:nodetypes="cccc" />
    <path
       style="fill:#afe9dd;stroke:none;stroke-width:0.196707px;stroke-linecap:butt;stroke-linejoin:miter;stroke-opacity:1"
       d="m 138.00638,145.87023 5.12105,1.32138 c 8.40582,-7.16314 17.051,-14.15544 27.36856,-16.93765 -14.07474,2.35846 -21.38889,8.37278 -32.48961,15.61627 z"
       id="path993"
       inkscape:connector-curvature="0"
       sodipodi:nodetypes="cccc" />
    <path
       style="fill:#afe9dd;stroke:none;stroke-width:0.196707px;stroke-linecap:butt;stroke-linejoin:miter;stroke-opacity:1"
       d="m 130.7832,157.05626 c 0.53522,-0.1716 4.2505,-2.90223 4.2505,-2.90223 4.4477,1.16054 8.86253,1.99515 13.15399,1.26597 8.03615,4.05524 14.61908,3.87944 23.01029,3.36105 -4.0819,1.42049 -8.47421,2.04591 -12.95945,2.03602 -8.93623,-0.98052 -18.30806,-3.18843 -26.30671,-3.87814 z"
       id="path995"
       inkscape:connector-curvature="0"
       sodipodi:nodetypes="ccccccc" />
    <path
       style="fill:#afe9dd;stroke:none;stroke-width:0.196707px;stroke-linecap:butt;stroke-linejoin:miter;stroke-opacity:1"
       d="m 116.51202,159.15866 0.60559,4.61612 c 8.06072,-3.00389 15.1923,-0.82409 22.15036,3.57047 10.49524,6.03447 19.10296,6.43269 29.02141,1.9714 0,0 -6.26966,0.5494 -6.68979,0.71098 -14.84174,2.73992 -25.76649,-12.3683 -36.92971,-11.79502 -1.96175,0.29569 -6.17956,0.86287 -8.15786,0.92605 z"
       id="path997"
       inkscape:connector-curvature="0"
       sodipodi:nodetypes="ccccccc" />
    <path
       style="fill:#afe9dd;stroke:none;stroke-width:0.196707px;stroke-linecap:butt;stroke-linejoin:miter;stroke-opacity:1"
       d="m 115.35276,141.74956 c 7.49049,-0.97782 10.50771,0.42008 17.51627,2.65007 0,0 -1.99816,-2.89942 -2.0628,-3.09333 -4.11381,-0.49022 -12.14972,-3.63574 -15.41195,-5.49863 0.64734,4.10276 0.28265,2.37556 -0.0415,5.94189 z"
       id="path999"
       inkscape:connector-curvature="0"
       sodipodi:nodetypes="ccccc" />
    <path
       style="fill:#afe9dd;stroke:none;stroke-width:0.196707px;stroke-linecap:butt;stroke-linejoin:miter;stroke-opacity:1"
       d="m 117.29853,164.70813 0.15489,1.18286 c 12.83218,-0.076 9.50376,21.85084 22.97338,16.94251 -9.36239,-1.6305 -7.61415,-13.81298 -10.67195,-18.05321 -4.71762,-0.67207 -8.0859,-1.17593 -12.45632,-0.0721 z"
       id="path1001"
       inkscape:connector-curvature="0"
       sodipodi:nodetypes="ccccc" />
  </g>
</svg>
